<?xml version="1.0" encoding="UTF-8" standalone="no"?>
<!-- Generator: Adobe Illustrator 16.0.4, SVG Export Plug-In . SVG Version: 6.00 Build 0)  -->

<svg
   xmlns:dc="http://purl.org/dc/elements/1.1/"
   xmlns:cc="http://creativecommons.org/ns#"
   xmlns:rdf="http://www.w3.org/1999/02/22-rdf-syntax-ns#"
   xmlns:svg="http://www.w3.org/2000/svg"
   xmlns="http://www.w3.org/2000/svg"
   xmlns:sodipodi="http://sodipodi.sourceforge.net/DTD/sodipodi-0.dtd"
   xmlns:inkscape="http://www.inkscape.org/namespaces/inkscape"
   version="1.1"
   id="pagekit-logo"
   x="0px"
   y="0px"
   width="127px"
   height="32px"
   viewBox="0 0 127 32"
   enable-background="new 0 0 127 32"
   xml:space="preserve"
   sodipodi:docname="logo.svg"
   inkscape:version="0.92.2 (5c3e80d, 2017-08-06)"><metadata
     id="metadata3848"><rdf:RDF><cc:Work
         rdf:about=""><dc:format>image/svg+xml</dc:format><dc:type
           rdf:resource="http://purl.org/dc/dcmitype/StillImage" /><dc:title></dc:title></cc:Work></rdf:RDF></metadata><defs
     id="defs3846" /><sodipodi:namedview
     pagecolor="#ffffff"
     bordercolor="#666666"
     borderopacity="1"
     objecttolerance="10"
     gridtolerance="10"
     guidetolerance="10"
     inkscape:pageopacity="0"
     inkscape:pageshadow="2"
     inkscape:window-width="3840"
     inkscape:window-height="2066"
     id="namedview3844"
     showgrid="false"
     inkscape:zoom="5.6791253"
     inkscape:cx="63.407996"
     inkscape:cy="11.895754"
     inkscape:window-x="-11"
     inkscape:window-y="-11"
     inkscape:window-maximized="1"
     inkscape:current-layer="pagekit-logo" /><g
     id="g71"
     transform="matrix(0.4872,0,0,0.4872,-8.3487039,-8.49389)"><path
       d="m 73.508,65.007 c -1.741,0 -3.45,0.592 -4.972,1.719 L 57.46,58.821 c 0.695,-1.592 1.046,-3.236 1.046,-4.896 0,-2.384 -0.687,-4.693 -1.992,-6.715 L 69.731,33.982 c 1.289,0.681 2.53,1.014 3.777,1.014 4.709,0 8.54,-3.831 8.54,-8.54 0,-4.709 -3.831,-8.543 -8.54,-8.543 -4.709,0 -8.543,3.834 -8.543,8.543 0,1.244 0.324,2.455 1.019,3.771 L 52.762,43.458 C 50.74,42.149 48.429,41.46 46.041,41.46 c -4.374,0 -8.41,2.33 -10.668,6.123 l -7.064,-2.249 c -0.549,-2.344 -2.668,-4.063 -5.101,-4.063 -2.898,0 -5.255,2.36 -5.255,5.258 0,2.898 2.357,5.256 5.255,5.256 1.319,0 2.557,-0.487 3.531,-1.379 l 6.94,2.209 c -0.057,0.422 -0.103,0.857 -0.103,1.311 0,6.875 5.591,12.465 12.465,12.465 3.117,0 6.064,-1.141 8.362,-3.222 l 10.995,7.848 c -0.292,0.879 -0.432,1.709 -0.432,2.528 0,4.709 3.834,8.543 8.543,8.543 4.709,0 8.54,-3.834 8.54,-8.543 -0.001,-4.708 -3.832,-8.538 -8.541,-8.538 z"
       id="path69"
       inkscape:connector-curvature="0" /></g><text
     xml:space="preserve"
     style="font-style:normal;font-weight:normal;font-size:58px;line-height:1.25;font-family:sans-serif;letter-spacing:0px;word-spacing:0px;fill:#000000;fill-opacity:1;stroke:none;stroke-width:1.45000005"
     x="32.687557"
     y="23.377348"
     id="text3773"><tspan
       sodipodi:role="line"
       id="tspan3771"
       x="32.687557"
       y="23.377348"
       style="font-style:normal;font-variant:normal;font-weight:bold;font-stretch:normal;font-size:19.33333206px;line-height:0px;font-family:Arial;-inkscape-font-specification:'Arial Bold';letter-spacing:0px;stroke-width:1.45000005">BOSTROT</tspan></text>
</svg>